<svg width="23" height="23" viewBox="0 0 23 23" fill="none" xmlns="http://www.w3.org/2000/svg">
<path fill-rule="evenodd" clip-rule="evenodd" d="M19.1425 16.9722L18.5939 16.5883C19.5992 15.1082 20.1305 13.3713 20.1305 11.5665C20.1305 6.68071 16.2135 2.70577 11.3985 2.70577C9.77554 2.70577 8.19154 3.16069 6.81787 4.0215L6.46754 3.44583C7.94654 2.5194 9.65187 2.0293 11.3985 2.0293C16.5809 2.0293 20.7972 6.30764 20.7972 11.5665C20.7972 13.5093 20.2252 15.3788 19.1425 16.9722ZM11.3986 21.1032C6.21627 21.1032 1.99994 16.8252 1.99994 11.5663C1.99994 9.6793 2.54227 7.85452 3.56827 6.28984L4.12327 6.66461C3.17027 8.11767 2.66661 9.8129 2.66661 11.5663C2.66661 16.4521 6.58394 20.4267 11.3986 20.4267C13.2223 20.4267 14.9686 19.8626 16.4499 18.7947L16.8359 19.3464C15.2416 20.4957 13.3613 21.1032 11.3986 21.1032ZM19.932 20.7035C19.997 20.7695 20.0823 20.8026 20.1677 20.8026C20.253 20.8026 20.3383 20.7695 20.4033 20.7035C20.5337 20.5713 20.5337 20.3575 20.4033 20.2252L2.86534 2.42933C2.73501 2.29708 2.52401 2.29708 2.39401 2.42933C2.26368 2.56124 2.26368 2.77534 2.39401 2.90759L19.932 20.7035Z" fill="#6E6E6E"/>
</svg>
