<svg width="30" height="20" viewBox="0 0 30 20" fill="none" xmlns="http://www.w3.org/2000/svg">
<path fill-rule="evenodd" clip-rule="evenodd" d="M8.48979 0.643372C7.25821 1.77417 0.565983 8.09412 0.565983 11.8919C0.565983 16.0649 4.12066 19.4594 8.48979 19.4594C12.8589 19.4594 16.4136 16.0649 16.4136 11.8919C16.4136 8.09412 9.72138 1.77417 8.48979 0.643372ZM8.4898 20C3.80852 20 0 16.3627 0 11.8919C0 7.49602 7.95834 0.373646 8.29708 0.072567C8.40575 -0.024189 8.57385 -0.024189 8.68252 0.072567C9.02126 0.373646 16.9796 7.49602 16.9796 11.8919C16.9796 16.3627 13.1711 20 8.4898 20ZM14.7157 20C14.455 20 14.1904 19.9884 13.9298 19.9657C13.7742 19.9519 13.6595 19.8205 13.674 19.6719C13.6881 19.5233 13.8251 19.4138 13.9816 19.4273C14.225 19.4487 14.472 19.4595 14.7157 19.4595C19.0848 19.4595 22.6395 16.0646 22.6395 11.892C22.6395 8.09388 15.9464 1.77339 14.7154 0.643402C14.3883 0.942859 13.6748 1.60853 12.8111 2.48933C12.7039 2.59798 12.5247 2.60366 12.411 2.50177C12.2969 2.39987 12.291 2.2288 12.398 2.11988C13.583 0.91151 14.4904 0.101651 14.5222 0.073304L14.5222 0.0732947L14.523 0.0725962C14.6316 -0.0241598 14.7997 -0.0241598 14.9084 0.0725962C15.2471 0.373675 23.2055 7.49605 23.2055 11.892C23.2055 16.3627 19.397 20 14.7157 20ZM20.4386 19.9657C20.6992 19.9884 20.9638 20 21.2245 20C25.9058 20 29.7143 16.3627 29.7143 11.892C29.7143 7.49605 21.7559 0.373675 21.4172 0.0725962C21.3085 -0.0241598 21.1404 -0.0241598 21.0318 0.0725962L21.031 0.0733213C20.9988 0.101978 20.0916 0.911754 18.9068 2.11988C18.7998 2.2288 18.8057 2.39987 18.9198 2.50177C19.0338 2.60366 19.2124 2.59798 19.3199 2.48933C20.1836 1.60853 20.8971 0.942859 21.2242 0.643402C22.4552 1.77339 29.1483 8.09388 29.1483 11.892C29.1483 16.0646 25.5936 19.4595 21.2245 19.4595C20.9808 19.4595 20.7338 19.4487 20.4904 19.4273C20.3331 19.4138 20.1969 19.5233 20.1828 19.6719C20.1684 19.8205 20.283 19.9519 20.4386 19.9657Z" fill="#6E6E6E"/>
</svg>
